/* XPM */
static char *result[] = {
/* columns rows colors chars-per-pixel */
"48 48 233 2 ",
"   c #17120A",
".  c #0C0F09",
"X  c #282814",
"o  c #352816",
"O  c #1F2228",
"+  c #312F2A",
"@  c #063E14",
"#  c #453216",
"$  c #523C24",
"%  c #0A4C1C",
"&  c #044818",
"*  c #02531A",
"=  c #0A541D",
"-  c #025C1B",
";  c #0C5B1E",
":  c #015516",
">  c #13541F",
",  c #0B4716",
"<  c #01641D",
"1  c #026A1E",
"2  c #0B671F",
"3  c #00731F",
"4  c #0E5C22",
"5  c #135A22",
"6  c #185825",
"7  c #275331",
"8  c #046521",
"9  c #0C6423",
"0  c #026B21",
"q  c #0C6B24",
"w  c #0E6D29",
"e  c #146325",
"r  c #1A6426",
"t  c #136A25",
"y  c #1C6B2B",
"u  c #166829",
"i  c #037322",
"p  c #0A7225",
"a  c #027C23",
"s  c #0C7C2A",
"d  c #097828",
"f  c #13752C",
"g  c #1C732C",
"h  c #147C2D",
"j  c #17782A",
"k  c #157C31",
"l  c #1C7831",
"z  c #187030",
"x  c #23672D",
"c  c #376C3A",
"v  c #2D7B35",
"b  c #267833",
"n  c #327E37",
"m  c #34743A",
"M  c #297430",
"N  c #4C422D",
"B  c #6F522D",
"V  c #7B6539",
"C  c #626336",
"Z  c #507A35",
"A  c #767A48",
"S  c #7F7560",
"D  c #887744",
"F  c #947C4A",
"G  c #877A54",
"H  c #028426",
"J  c #008B27",
"K  c #048529",
"L  c #0B842B",
"P  c #038C29",
"I  c #0B8D2D",
"U  c #088427",
"Y  c #13822E",
"T  c #118C2E",
"R  c #1B822E",
"E  c #02942A",
"W  c #0B942E",
"Q  c #019C2D",
"!  c #009127",
"~  c #0D8431",
"^  c #0D8B31",
"/  c #148332",
"(  c #1B8532",
")  c #138C33",
"_  c #1B8C33",
"`  c #0C9433",
"'  c #059E31",
"]  c #0C9C34",
"[  c #0E9D38",
"{  c #139334",
"}  c #1A9234",
"|  c #159B37",
" . c #228A36",
".. c #2C8B39",
"X. c #288436",
"o. c #35833A",
"O. c #328A3C",
"+. c #3A8A3E",
"@. c #388339",
"#. c #22943A",
"$. c #2C943C",
"%. c #249B3A",
"&. c #28963B",
"*. c #33963F",
"=. c #329B3F",
"-. c #01A32E",
";. c #04A432",
":. c #0CA334",
">. c #03AC33",
",. c #0BAB36",
"<. c #0DAA38",
"1. c #0FA538",
"2. c #13A236",
"3. c #14A43A",
"4. c #1DA53C",
"5. c #13AC39",
"6. c #1AA93A",
"7. c #02B435",
"8. c #09B036",
"9. c #01BB36",
"0. c #0BB53A",
"q. c #05BC39",
"w. c #0BBC3B",
"e. c #07B439",
"r. c #13B23B",
"t. c #14BB3D",
"y. c #22AB3E",
"u. c #29A43E",
"i. c #00C236",
"p. c #03C33A",
"a. c #0BC43D",
"s. c #02CC3B",
"d. c #0BCA3E",
"f. c #15C13F",
"g. c #02D33D",
"h. c #01DB3F",
"j. c #08D13F",
"k. c #00E23F",
"l. c #3D8E41",
"z. c #388A40",
"x. c #3A9541",
"c. c #369B41",
"v. c #3B9B43",
"b. c #349540",
"n. c #1DBC42",
"m. c #25AD40",
"M. c #2BAB42",
"N. c #2DA641",
"B. c #33A443",
"V. c #3AA445",
"C. c #33AA45",
"Z. c #3BA947",
"A. c #3DAC49",
"S. c #3FA748",
"D. c #24B441",
"F. c #2CB444",
"G. c #23BC43",
"H. c #2BBC46",
"J. c #2FBF48",
"K. c #32B446",
"L. c #37B548",
"P. c #3CB54A",
"I. c #35BD4A",
"U. c #3ABB4B",
"Y. c #30BA47",
"T. c #429544",
"R. c #439B46",
"E. c #479E48",
"W. c #4A9D49",
"Q. c #4CA24C",
"!. c #43AC4B",
"~. c #48A94C",
"^. c #43A248",
"/. c #41B24B",
"(. c #689C5C",
"). c #0DCD41",
"_. c #0DC041",
"`. c #12C641",
"'. c #1BC642",
"]. c #11CB42",
"[. c #1ECA45",
"{. c #06D440",
"}. c #0CD541",
"|. c #03DC41",
" X c #0CDC43",
".X c #13D443",
"XX c #1CD446",
"oX c #13DC45",
"OX c #19DA47",
"+X c #1ED648",
"@X c #1CDC49",
"#X c #23C446",
"$X c #2BC449",
"%X c #26CE4A",
"&X c #2BCB4A",
"*X c #24C847",
"=X c #32C34B",
"-X c #24D349",
";X c #29D14A",
":X c #20DA4A",
">X c #02E442",
",X c #0CE445",
"<X c #02EB44",
"1X c #0AEB46",
"2X c #0DEC48",
"3X c #0FE748",
"4X c #13E549",
"5X c #19E149",
"6X c #11EA48",
"7X c #10E247",
"8X c #01F445",
"9X c #01FD47",
"0X c #0AF248",
"qX c #05F848",
"wX c #4DC763",
"eX c #948A4F",
"rX c #A78855",
"tX c #AD996B",
"yX c #B9A876",
"uX c #96A86C",
"iX c #8EBA95",
"pX c #BCB590",
"aX c #CBBA97",
"sX c #C4B388",
"dX c #C6B8A1",
"fX c #80DE88",
"gX c #DACAAC",
"hX c #D1C09E",
"jX c #FFEEDD",
"kX c #F8E7D4",
"lX c #F6E5CA",
"zX c #D6E6DD",
"xX c None",
/* pixels */
"=Xa.< /.L.C.U.>.r P.$X|.-.E ,.-.x.>Xs.J ~ @X>XY < L y.OXg.R I O.OX>Xa !.L.@XOX^ +.T x -Xj.I R P.",
"&Xs.P ,.w.] @Xp.a ] =X;.% K Q e !.9.5 H Q _ u.< -.|.1XOXf +.T Y L.#X;.] 1.qX-XE l.C.B..X XXXx  X",
";X;.% p ! q ,X^ : a @Xo.o.h.<XM '.*.n s.>X=.} 9X<. X&XL.1 c.5X*Xe.>Xh.y.C./.@X9.I ] >Xf oX*.{ G.",
"&Xx g 9X0X&XR.j 7.9X@Xq.K ).|.x.+.#XH 4.w.g./ 9X] >.x.<Xs.a Y h.q s.h i.d.H.g.h 0 E -.{.|.%X&XXX",
">.<X8XT.-.k >X XI.h s.d.3 i.~ ..c.q.>.L 0.a.E Q.- H O.7.6 H E ; A.&X>.J l m.g 4 s.8X!.>X6 w.e.M ",
"3 s.{ o.* 1 1.E K.9.J ^.>X-...>.~.9 p.8.1X0X!.0X;X` 7.K.T.w.h.=.z XXH.>Xi } N.n.OX!. X$.* a & W ",
"9.! l 7.| U.a b f.&.p.-Xd.* Q.P :.~.,XU s.} y 9X;X;.o.c.=.&X}.>.x.>.$X/ ). Xx.U.2X2X8X;X{.;.v.Q ",
"0.4 Q.E ../.e v.9.&Xk I.<.- I.%Xy.w.V.E Q 9 E Q.%XE R w.<X}.3Xp W.m.U.P 0.L a.h.l.Q { 6X>X9 W.#.",
"w.< /.Y.N.).q U.&XU.Q &X<Xi.r.4.<.r.4X}.s W.E Q.|.T < W 7.c.1X>X=X/.8Xa.w.< ;.s &.a k P.D.i D.).",
"|.Q ;.8.W ;.J ] r.2Xj.$X|.`  X1XF.j oX XH ^.Z.~. .= 7.<XC.A.<Xe d.6.{.h E.|.Q ..e.X.=X=X8.! q >.",
">.% i ! - v.= a } >X^ 4X[.>.9.b q 4 Z. X7.;.` h.6.&Xk $.} v.M.- H h #X+.%Xp.% Q.J _ ~.~.1 @ h.h.",
"-.;.;X;X;XqXi.-X;Xm.-.s.H.I 7.< p [.L.7.q p Q H D.I.a o.;X1X#X Xe.*.Q c P.1.- =X;X4.w.9X#Xb.>.y.",
"<.' |.>XT.-./ h..Xo.7.<.9X+X~ o.T u P.e 5 >X9XI.=X4X9X;.) >X X,X5 W.) / ;X|.Q E 8.E :.k.i.W.E M ",
" Xd d.3.$.1 s ` J  .1 2.U.4Xf.{.h. XI.I.%X>X<X7.,X2XY.<._ E V.M.0 P.2X`.@X>.% J Q p h.}.P.=Xn.>X",
"%X~.@XJ.9X9XU.i b f.r.=Xs.o.P ^ <.a [ 0.o.E q.q w._.<. X5XY./ 0.>XoXU.W | y.O.h.>XX.] J [ >.n W ",
"i.w.{ u ^ ,X!.t =.J u.P.9 | >.( W - d 8 f.>.&.>.E 9.` 9._ 9 ; = {.| u - < 6XXXw. .{ H < q < t.>.",
"! u 1 T a `.{.t U.I.G.|.*.;.m =X=X{.K x.5.#.&X0.1 Q.3 E : 1 oX4X%.; ! j.%X5X6Xb T.r.P.j.s $.6.6.",
"9XK _ c.`..Xe.H ` g.9 h.Q.H U ~.!.q.> v.i  .~.. a -XXXI @.T x @Xw.W.Q c &X} q.8X<X/.=X,.6 c.H  .",
"h n _ a F.8X}.x.M.oX>Xh.6XQ.~.9X0X8XV.Q.n > qXF $ d.OX. o x R.oXw.W.V.v.6Xh.1 e.] +.~.0 5 4X2X:.",
"i.q.oX-X%X| E r.w.n ;.9Xe.OX-X;X9X5.h.;XeXG wXF D m.-X-.; Z >Xh s.2.r.i.h +.>.a g w.2X5.i k |.i ",
" XI 7.{ p Q < L i y.J 2X` >.) i 5X9.8 & G tXtXF D   g.T 3 X : R e q -.! ( &X1.4 ^.2.-Xd.oX=X-Xm.",
"D.q E q 2 Z.s.a ..r.4./.i P = ; P.j 4 tXpXpXyXtXtXV iX5 p.@.6 d.a.h.<X+. X=Xq.< /.H.k.,.H ) W M ",
"*Xb p.).{ =X:.5 x.P %.0X-X] X.} 9X=X7 G hXaXzX. yXrXzX} > # k.*XP.$XXX,Xg.;X|.! ,.p.] t < = :  X",
"a y = s.v./.a 5 @X@X<.5X;X;.o.c.&XX.7 gXkXhXO S tXV + iXB , ] W 1.,.v ] { :X] * 0 E 3 =X1.p $.} ",
"2  X,XI.w.2Xa.a L g.p Q.=XP s.>X$Xe jXdXN jXlXaX+ rXo o o &XQ 1 L 0 6.P P.=Xr y k.1X=.=X8.r x._ ",
"#.f [.*X{ 6X<XL.A.2XD.>X>X^ s.4 ) & jXkXkXjXjXpX  $   F tXd /.k.H $.6.6.%Xh.> Q.-.] Q./.p u >XqX",
"Z.B.[.3X>X<Xf {.a.v H / <X{.U.B.oX1.fXjXjXlXgXsXV # V D rX$ &X] 6 x.,.,X%XY.'.K.:.h.:X1X) < s s.",
"<.<Xf |.xX-X>Xs.@X@X=X] a.p 8.g.z.Q * uXaXaXyXyXD   D yXeX# 5.H e -X2XY 9.0._ t g.2.d.D.< i s.6.",
"k.%X&X%Xd.-X8Xp p.[ y < <.- Q p 4.E _ @.X F F X $ o yXN F # P w.3 Y d.J J e < 2...i.0 ].$.b.P r.",
"% ] 7.n K ].T.0 H = !  X!.,XQ x.,.b =X4XI g wXA A @ C pXV J I.P.7Xy.@X%X>Xs _ N.U.u 3 - 4 >X>X!.",
"& < & i.8X=X6X`.E W.Q c %Xg., W.|.9X/.@Xh.J h.a $X/ 0 T.s.6 q.q.u p } %Xf n _ J =XI.f t x.` $X%X",
"0.H R.>.o.=X2X,X{.g.@X5X=X:.[ 6X<Xz s.A.}.-.T.q.%X|.9 Q.M.< P % p i.`./.< v 5X@X-X=Xi.e E.v.F.5X",
"h.= Q. .#.~.~.f.k.9 a.2.b 1 p 1.n.a ;.L.8.q -Xw.P.5.3 a.G.7Xi...E c -X8Xs.i h >X@X=X' q s.<XK 0.",
"2.1 5XqX6.-X=Xa.y.H J 4 -.a.J.5.F. Xp.F.y 5 $Xa.-X` < t  X7Xw E._ _ P.a.t 3 >.! =X-X .P ) >Xa h ",
"k.k.-X=X-XK.<X<X] d.P W.Q m =Xj.<XoX9 Z.} _ =X{.P.9 4 h.J.F.1 N.oX2X,X'.B.XX#X8X8XoX1X,X4XU.H.H.",
"7.j i.0.h 9 h p.P 9Xs.=Xv.f.I.9X=XC.- Z.6X`.$X7.p ) L 0 !.9X9XB.x.9XF.8Xk.T u k <X,.q.] ! ` :.M ",
"k.;X%X*Xd.0.:.XXP.@Xh 9.a.| y ^ {.|.%X%X;X| d.g.Q ;X;X-X-X8XL {.{.O.a h [ - ,.Q G.3 b P 0 p 8 t.",
"% [ 7.o.a q.0X5XI.>Xd.7.) 0 ) 0 g.u i.:.u 8 9 8.;.>X<XT.Q h Q q.y f i 8 t._ =.`.5X5X9X;X|.a $.4.",
"< 3 = q.j.>X,.>X1XZ.K T 9.( m.`.^.< H * a }.'.D.0 q.^ ..< p >Xs.( E o.-X=X#.s N.I.F.8X9X[ r b.L ",
"w.J ^.,.+.8XL s./ u < ; &X#.h F.;X X,.x.Q m +X'.q.E b 7.%.I.>Xu W.L h P.P.OX@Xe..X9 f ,Xa u OX@X",
"h.a.a.XX-X^.Q >.q P n.%XP.-X-X;X%X6X/.@X Xh.w.I.t.; W.E  ./.G.0 Z.-Xy.w.9.Y >Xt -.8.] [.9Xs.*.G.",
"2.s.T i.| ,X.XL W.E M =X,.j.{.<X=X$X-Xh.).a 9.-Xw.< P.Y.N.s.>Xi.U { s.s 7.>.Y u.J.O.OX}.s.W |.>X",
"I N.: a & d.oXE E.!.V.<Xi.s.s.; / 7.o.I 9.<X!.>.1X,.7.<.7.<X7X!.I.XX8X8Xt.p.H.6  XL Z.!. XH g.( ",
"8X*XqXg.O.!.2Xi.W ) p.h k.#Xj & 8 * s.h.V.F.w.s.1X2XA.>.) ,.a 9XqX^.^.<X:XqXJ O.2X,X>.>XW.h.9.l ",
":Xs.z.b.#X/.q.q p E a $.+.5XU.0.a v.1.$.=Xm.>X8 a.1.n - p L < h.p g.h.@.H / <XoX-X&X_ p.1X:X&X| ",
"<.Q 9X9XH.F.g 6 h.8Xv.}.Q k.=Xs.= E._ %.=XP +.a a ; 9.d.;X=X5X].H 7.y j a p _ q.{ q 9 4 d.1.y 1 ",
"d.< <X:.] 9..X7X>.J h i } #.U.T t.5XU.P.qX#X;Xw.i W.Q ..` 7.}.P.{.|.C.K.6X'.j.7.= 1 ]..Xu.= P d.",
"T.s.<X>.i.1 ] 5.u.s.3 X.n.x.1.s.7X@XB.i.[ <X0X<XD.~.`.m.i.0 ] oX|.9 a.s.n J I s.O.T M XXp.T.Q c "
};
