/* XPM */
static char *result[] = {
/* columns rows colors chars-per-pixel */
"48 48 219 2 ",
"   c #1B3B31",
".  c #29362F",
"X  c #262135",
"o  c #2C2534",
"O  c #342534",
"+  c #392334",
"@  c #362836",
"#  c #3C293B",
"$  c #2C3533",
"%  c #2E3B33",
"&  c #343C37",
"*  c #4B2735",
"=  c #432E32",
"-  c #41293C",
";  c #552B38",
":  c #483535",
">  c #41353C",
",  c #5B3531",
"<  c #593B36",
"1  c #543438",
"2  c #672933",
"3  c #6A2C37",
"4  c #732C34",
"5  c #693935",
"6  c #773934",
"7  c #793E39",
"8  c #05591D",
"9  c #02671F",
"0  c #15572E",
"q  c #19592C",
"w  c #2E4C28",
"e  c #3D4632",
"r  c #364139",
"t  c #2B5B39",
"y  c #3A5437",
"u  c #086722",
"i  c #0A6B23",
"p  c #166929",
"a  c #087826",
"s  c #16772C",
"d  c #187135",
"f  c #177937",
"g  c #296A30",
"h  c #286939",
"j  c #277835",
"k  c #4E4F38",
"l  c #78422F",
"z  c #6C4F33",
"x  c #794636",
"c  c #655837",
"v  c #79563A",
"b  c #476534",
"n  c #466F32",
"m  c #557037",
"M  c #747430",
"N  c #302F44",
"B  c #3D3D54",
"V  c #443B45",
"C  c #4B3648",
"Z  c #593242",
"A  c #6C3546",
"S  c #773946",
"D  c #7D3B4B",
"F  c #327741",
"G  c #59494E",
"H  c #6A5349",
"J  c #4F6E41",
"K  c #75654D",
"L  c #7D604D",
"P  c #71684D",
"I  c #852D34",
"U  c #952F32",
"Y  c #992F32",
"T  c #893732",
"R  c #973433",
"E  c #A03232",
"W  c #AC3232",
"Q  c #B4383A",
"!  c #80482D",
"~  c #83473B",
"^  c #934D30",
"/  c #8F563B",
"(  c #AB5A2A",
")  c #856A31",
"_  c #A06029",
"`  c #BF6328",
"'  c #C5512C",
"]  c #C86729",
"[  c #D66C27",
"{  c #C17C29",
"}  c #DF7126",
"|  c #883E4C",
" . c #A83E47",
".. c #8B404D",
"X. c #954548",
"o. c #9F484A",
"O. c #8E4050",
"+. c #944950",
"@. c #A94B4E",
"#. c #AB4956",
"$. c #B44C56",
"%. c #BD4F5C",
"&. c #BD575B",
"*. c #9C6955",
"=. c #887167",
"-. c #84736F",
";. c #C5474E",
":. c #C04F5C",
">. c #C5515C",
",. c #CA535E",
"<. c #D2525C",
"1. c #CD5360",
"2. c #D55662",
"3. c #D95763",
"4. c #038226",
"5. c #038528",
"6. c #0A822B",
"7. c #038B2A",
"8. c #0B8B2E",
"9. c #13872E",
"0. c #04932C",
"q. c #09972E",
"w. c #029B2E",
"e. c #12912F",
"r. c #0D8A32",
"t. c #198834",
"y. c #099732",
"u. c #0C9B32",
"i. c #139333",
"p. c #179937",
"a. c #268737",
"s. c #33893A",
"d. c #23953A",
"f. c #27983A",
"g. c #35973B",
"h. c #05A431",
"j. c #0BA334",
"k. c #03AB34",
"l. c #0BAC37",
"z. c #13A336",
"x. c #19A83C",
"c. c #03B335",
"v. c #07B738",
"b. c #05BB39",
"n. c #0CBB3C",
"m. c #14B23B",
"M. c #1BB33E",
"N. c #15BB3E",
"B. c #25A53D",
"V. c #34B436",
"C. c #528736",
"Z. c #559531",
"A. c #5EA331",
"S. c #51A935",
"D. c #5EAB31",
"F. c #5DB332",
"G. c #60B233",
"H. c #6ABE30",
"J. c #71B43E",
"K. c #04C43B",
"L. c #0AC43C",
"P. c #03CC3C",
"I. c #14C23E",
"U. c #03D33E",
"Y. c #07D63F",
"T. c #6EC133",
"R. c #72C535",
"E. c #76C739",
"W. c #7BCC3B",
"Q. c #2D9641",
"!. c #389941",
"~. c #1FAB40",
"^. c #18B642",
"/. c #1BBD41",
"(. c #2AA942",
"). c #38A845",
"_. c #2BB444",
"`. c #2AB745",
"'. c #23BB43",
"]. c #37B64A",
"[. c #33BD49",
"{. c #439E46",
"}. c #42A749",
"|. c #71A14A",
" X c #0DCE41",
".X c #18C742",
"XX c #0BD742",
"oX c #05DC41",
"OX c #13D444",
"+X c #18D746",
"@X c #26C747",
"#X c #32C24A",
"$X c #23D349",
"%X c #02E444",
"&X c #09E345",
"*X c #03EB45",
"=X c #14E248",
"-X c #03F247",
";X c #BAB235",
":X c #BA8A5E",
">X c #C99562",
",X c #D9A066",
"<X c #85C44B",
"1X c #82D241",
"2X c #8CDA47",
"3X c #91DE4B",
"4X c #98E44F",
"5X c #99E550",
"6X c #767D98",
"7X c #8C8C99",
"8X c #C9A382",
"9X c #CCA889",
"0X c #E8BF97",
"qX c #EEC39A",
"wX c #AFBCDA",
"eX c #CACEDC",
"rX c #CBDBFC",
"tX c #DAE5FD",
"yX c #E5EDFD",
/* pixels */
"%X X_.#X^.Y.Y..X`.@XL.9 v.4.(.a u.p c.0.9.i h.k.6.6.8.$Xb.p {.s (.].@X[..XN.#X`.d.9.8.4.i Y.XX#X",
"L.5.6.8.p k.j.w.i.h.a.8.0.p n.^.N.u.h.p 0.(.^.l.q j /.OX Xp.]._..X-Xv.y.p j.L.L.'.M.p.b.b.z._.$X",
").XX0.t.e.j ).%X7.f.'.L.p g.8.9.[.&Xp s.f h &.&.>.>.J h a v.a z.i.*Xw.a.8..Xv.k.l.p 8 8 Y.oXc.I.",
"=Xn.8 !.9.x.[.k.g }._.z.a (.@XN.`.'.a t ^ # 3.3.3.3.# R : w u m.p..Xs !.8.a.l.w.p 5./.V.M.c.8.i.",
"@XL.u (._.B.@XK.6.`.@XP.0.a h.q.f.C.c W W - #.D D #.# W W I c h (.OX0.B.(.$X*X5.j f.a.[.L.v.a.@X",
"#Xl.8 6.c.e.+Xj.i s _.a a P. Xh < W W W W X 3 U U 3 X W W W W 6 y Q.5.d ^.$X[.a i.I.Y.8.N._.p..X",
").a 8 oXI.g.).i 0.oXOXQ.x.V.{ ` 2 W W U ; + W W W W + ; E W W I 1.%.Z a./..X X6.u h.P.b.Y.].).+X",
"j.'.I.B.8.L.x.m.OXv.Q.n _ } } ` 2 4 3 D 1.+ W W W W + [ ^ 4 I T 1.3.3.+.& t p j u.K.d.q.0.%Xl.g.",
"a 0.7.9.0.i.e.i B.j >.x } } } ` o X %.3.3.+ 4 + + 4 O } } ] , ; :.3.3.3.6 %.1 y _.@XOXp.0.c.a j.",
"*Xk.!.u.(.).s k >.<.3.x [ ] 5 S 3.- 3.3.>.X +.3.3.O.X ] } } 7 2.S A :.2.7 3.3.>.C i.XX$Xm.j.s.z.",
"U.s }.f.B.c 6 o.3.3.3.7 ^ S 1.3.3.- ,.D D - 3.3.3.3.- ..( [ 7 3.3.2.A X.7 3.3.3.+.4 z (.M.a B./.",
"Y.q.v.m.C.W E o.3.%.# U R o.3.3.3.- # A 2.- 3.<.3.3.- 3.X.< 3 3.3.3.o.R U N >.3.o.E W c p.k.a c.",
"0.a p k.c W Y X.x 6 W W W o.,.$.- :.%.D 3.# S @ @ ..# 3.o.Y E ; $.>.o.Y W W 6 x X.Y W x r.q 0.c.",
"w.w.OX.Xc 4 4 o.6 W W W R T 5 #.3.3.%.D O.o ` } } ( O O.o.Y W W U 5 ~ E W W W 6 ( 4 4 z d.g.m.M.",
"Y.8.g l.. #.%.3.7 W W * ; 1.7 2.3.3.%.o T = } } } } = $.5 E W W W 6 >.A 3 W W l } ] ( o y.!.i.4.",
"+X(.XXx.K 2.2.3.7 R 5 ,.3.3.x 1.%.# * W W = ] ] ] [ = 3.3.Z + Y W 7 3.3.>.; I x } } } M '..Xd.v.",
"n._.x.d.K 3.,.+.o.X.o.3.3.3.7 X.D O W W W O 6 4 4 T O 2.3.3.O l T 7 3.3.3.o.....^ [ } M p 8.r.8.",
"a e.8 t.H S A ,.2.>.o.3.1.Z $.,.3.- W W * + E W W E + Z 3.3.= } [ ( - %.3.o.>.<.>.1 , M a g.p..X",
"c.6.a x.k 5 3.3.3.>.| S Z D 3.3.3.- I o :.+ W W W W + >.; #.: } } } l # Z X.,.3.3.3.o r p ).e.B.",
"h.m.f.a.) 6 <.<. .| | ,.%.D 2.1.D x 6 D <.+ I 2 2 U + ;.| D X.^ [ } ! %.,.o.| ..3.<.# P s /.I.p.",
"v.u.Y.M.M l >.= X :.3.3.%.D Z 1 ` } Y 4 Q X X Z.C.o X W 3 %.2.:.5 7 ! %.3.3.:.X - >.- K 8.a.L.x.",
"t.k.U.t.c T 6 W # 3.3.:.#.- X } [ [ I $ X y n A.A.n y X $ 4 <.2.3.X - $.,.3.3.+ W * * H b.%X/.g ",
"@Xp.c.j.k E W W + <.D D | 3.* ' R 2 n Z.. H.n A.A.n H.$ Z.n 2 R ;.# 3.@.X.| ,.+ W W E e 4.i i u.",
"u.j 8 l.L W W W + N A 2.3.;.+ + b $ H.H.% T.n A.A.n H.& H.H.$ b + + ;.3.2.A + + W W W c u.u t.t.",
"a L.-X].c Y I - >.%.S ,.U ; X A.A.$ A.A.r <XJ |.|.m <X. A.A.$ A.A.X ; U <.S %.,.l U R c e.8 g.u.",
"g.p..X`.y X | 3.<. .* 2 n n n n n n n n g n n n n n n n n n n n n n n n 2 * @.3.3...O y q.9 m.%X",
"&XY.K.l.P # 3.;.Q O b A.H.H.H.2X3X3XR.3X5X4X3XT.4X4X2X2X3XR.3X3X2XH.H.H.A.y O Q ;.3.@ M t.8 4.a ",
"L.'.g. XL # U 5 % . H.H.H.J.<X<X<X<X<X<X<X3X5XE.5X5X4XA.A.A.A.A.A.A.A.H.H.H.% % 5 U = v g t.K.@X",
"h.P.P.a.w X n Z.H.% E.1Xb < 1 z L L L L / C.2X1X5X2XC.L L L L =.-.=.=.m T.E.& H.Z.n o y s M.8.N.",
"a a i u.b.t H.T.H.% T.R.@ / > = > > & *.,X% T.R.R.H.% ,X*.& V V V H qXV H.T.% H.H.H.  s a.j._.+X",
"U.e.{.q.a.Q.H.1X3Xr 4XW.@ < eXyX6XwXtX7X9X% 1X5X5X1X% :X= 5 5 5 5 , =.V E.4X& 3X1XH.s a.).(.'.=X",
"m.p `.N.^.j 1X1X1Xr 5X5X@ H eXrX6XeXtX6X8X% 1X5X4X1X. :X= 5 x / / < =.V T.4X& 1X1X1Xp 4.j.U.w.y.",
"Y.P.+X$X`.F 3X3X4XN 5X5XN K B B N B B N 9X% 1X4XE.1X% :X= ~ / / / , =.G R.2X% 4X2X5Xf  XOX.X(.(.",
"K.i.&X*X@Xt 4X4X5X% T.E.> / wXtX7XwXrX6X9X% T.R.R.T.% :X: ~ / / / , =.& H.R.% 4X5X5Xr.v.K.%X'.p ",
"b.I.OXB.j.0 1X5X2X% 2X5XV K eXyX6XwXrX6X9X% 1X4X5X1X% :X< / / / / , =.V R.5Xr 2X5X2Xf u.7.u i u.",
"0.n.v.j 8 0 2XR.2Xr 5X5XV >XG B N B B -.0X% 1X4X5X1X% 8X< / - / / , =.V R.5Xr 2XR.2X^.%Xh.u a.t.",
"7.4.p k.OXd 5X5X4Xr 4X2Xk :X:X:X:X8X9X9X9Xy W.2X3XW.% 9X< = ;Xz / , =.V H.W.r 5X4X4Xl.%Xu.8 B.p.",
"U.h.'.m.(.h 5X5X5X% E.1XJ.n n n n n n n n T.1XT.1XE.% 9X< x : ~ / , =.V T.1X% 5X4X4Xd /.c.7.'.+X",
"d.w.s h.u.d E.5XE.r 1X2X5X2X2X4X2X4X3X3X2X4X5XE.5XW.% 9X< ) / / / , =.V R.4Xr E.4XE.p..Xb.K.XX*X",
"K.m.w.0.a t 3XR.4Xr 1X4X5X4X4X4X4X4XE.5X4X4X5X5X5X1X% 9X< X./ / / , =.V R.1X% 3XR.3XQ.(.L.6.8.u.",
"^.p. X^.a.y 1X4X1Xr 1X1X1X1X1X1X1X1XT.1X1X1X1X1X1XE.$ 9X< / / / / , =.V T.E.% 1X5X2Xt.*X(.p.u.i.",
"oXXX_.`.'.t H.R.T.% H.2X3X3X3X3X4X2X2X3X3X2X2X4X3XW.$ 9X< / / / / , =.V R.2Xr T.T.T.0 u. XXX(.u.",
" X6.*X%XXXp.H.H.H.% S.S.F.S.D.D.D.F.F.G.F.S.F.S.S.D.$ 8X1 v v v v 1 =.V D.D.% T.T.T.0 i v.p t.a ",
"_.v.%Xk. X7.V.S.S.0.a p t.F j p.~.^.Q.t.~.^.^.u.F F d |.d 0 f j t.0 b j q 0 f V.Z.f.i._.p.a.u.B.",
"+Xn.).i.f.w.a u.@X5.a.a.y.(.n.6.n.l.s.8 h.*X Xu.c./.p.j f.w.4.g.~.a 5.a a q.9.i.j a.d.`.p.}.g.a.",
"+X X*X+X=X9.i #X$Xk.a.).).`.s u u 8 P.%X].)._.v.7.y.8 p.=Xf i @X].-Xk.Q.e.f.}.q.e.&XoXa 0.(.%Xc.",
"#Xl.@X#X@Xq.u }.+Xa 4.u.K.j.).n.t.g.w.B.#X@X@X.X8.s a x.@Xq.u ].$XoXa !.p.B.@Xz.i 0.u.t.s 7.w.5.",
").i !.OX@Xi.i d.f.u 4.P.n.(.}.i.p @XOXI.^.XXn.=Xw.j g.!.@Xi.i z.#XXX0.l.z.m.u.M.z.U.B.p.N.K.U.a."
};
