/* XPM */
static char *result[] = {
/* columns rows colors chars-per-pixel */
"64 64 15 1 ",
"  c #222034",
". c #45283C",
"X c #663931",
"o c #AC3232",
"O c #8F563B",
"+ c #DF7126",
"@ c #D95763",
"# c #6ABE30",
"$ c #FBF236",
"% c #D9A066",
"& c #99E550",
"* c #EEC39A",
"= c #CBDBFC",
"- c white",
"; c None",
/* pixels */
";;;;;;;;;;;;;;;;;;;;;;;;;;;;;;;;;;;;;;;;;;;;;;;;;;;;;;;;;;;;;;;;",
";;;;;;;;;;;;;;;;;;;;;;;;;;;;;;;;;;;;;;;;;;;;;;;;;;;;;;;;;;;;;;;;",
";;;;;;;;;;;;;;;;;;;;;;;;;;;;;   ...;;;;;;;;;;;;;;;;;;;;;;;;;;;;;",
";;;;;;;;;;;;;;;;;;;;;;;;;;;  @@@@@@..;;;;;;;;;;;;;;;;;;;;;;;;;;;",
";;;;;;;;;;;;;;;;;;;;;;;;;  o @@@@@@ o..;;;;;;;;;;;;;;;;;;;;;;;;;",
";;;;;;;;;;;;;;;;;;;;;;;  ooo @@@@@@ ooo..;;;;;;;;;;;;;;;;;;;;;;;",
";;;;;;;;;;;;;;;;;;;;;  ooooo @    @ ooooo..;;;;;;;;;;;;;;;;;;;;;",
";;;;;;;;;;;;;;;;;;;   oooooo  oooo  ooooooX..;;;;;;;;;;;;;;;;;;;",
";;;;;;;;;;;;;;;;;  ++ ooooo  oooooo  oooooX@@..;;;;;;;;;;;;;;;;;",
";;;;;;;;;;;;;;;XX++++ ooo  @ oooooo +..oooX@@@@..;;;;;;;;;;;;;;;",
";;;;;;;;;;;;;XXX+++++ o  @@@ oooooo +++..oX@@@@@...;;;;;;;;;;;;;",
";;;;;;;;;;;  @@X+++++   @@@@ o    o ++++X..@@@@@X@@..;;;;;;;;;;;",
";;;;;;;;;XX@@@@X+++..@@ @@@@  @@@@  ++++X@@..@@@X@@@@..;;;;;;;;;",
";;;;;;;XXX@@@@@X+..@@@@ @@@  @@@@@@  +++X@@@@..@X@@@@@...;;;;;;;",
";;;;;; ooX@@@@@XXX@@@@@ @  @ @@@@@@ @XX+X@@@@@XXX@@@@@Xoo.;;;;;;",
";;;;; oooX@@@  ooX@@@@@   @@ @@@@@@ @@X..@@@@@Xoo  @@@Xooo.;;;;;",
";;;;; oooX@XXooooX@@@  @@ @@ @    @ @@Xoo..@@@XooooXX@Xooo.;;;;;",
";;;;; oooXXXoooooX@XX@@@@ @@  ++++  @@XooooXX@XoooooXXXooo.;;;;;",
";;;;; o  @@XoooooXXX@@@@@ @  ++++++  @XoooooXXXoooooX++  o.;;;;;",
";;;;;  @@@@Xooo  @@X@@@@@  o ++++++ @XXoooooX@@..oooX++++  ;;;;;",
";;;;; @@@@@XoXX@@@@X@@@  ooo ++++++ @@@  oooX@@@@..oX+++++ ;;;;;",
";;;;; @@@@@XXX@@@@@X@   oooo + ...+ @@@@   oX@@@@@X..+++++ ;;;;;",
";;;;; @@@..@@X@@@@@XX@@ oooo  oooo. @@@@ ++XX@@@@@X@@..+++ ;;;;;",
";;;;; @..@@@@X@@@..@@@@ ooo  oooooo  @@@ ++++  @@@X@@@@  + ;;;;;",
";;;;; .X@@@@@X@.. @@@@@ o  @ oooooo @..@ +++++   @X@@@@@   ;;;;;",
";;;;; +X@@@@@..@@ @@@@@   @@ oooooo @@...+++++ @@XX@@@@@ @ ;;;;;",
";;;;; +X@@@..@@@@ @@@  ++ @@ o    o o@ @@..+++ @@@@  @@@ @ ;;;;;",
";;;;; +X@   @@@@@ @  +++o oo   ##   oo @@@@..+ @@@@@   @ @ ;;;;;",
";;;;; +XXoo @@@@@   ++++o    # ## #    o@@@@   @@@@@ oo  @ ;;;;;",
";;;;;  oooo @@@  @@ ++oo  # ## ## ## #  oo@@ @@XX@@@ oooo  ;;;;;",
";;;;; ooooo @  @@@@ oo  ### ## ## ## ###  oo @@@@  @ ooooo ;;;;;",
";;;;; ooooo   @@@@o   # ### ## ## ## ### #   o@@@@   ooooo ;;;;;",
";;;;; ooo  @@ @@oo  ### ### && && && ### ###  oo@@ @@XXooo ;;;;;",
";;;;; o  @@@@ oo                                oo @@@@  o ;;;;;",
";;;;;   @@@@o   ################################   o@@@@   ;;;;;",
";;;;; @ @@oo  ######&&&&#&&&&&&#&&&&&&&#&&&&######  oo@@ + ;;;;;",
";;;;; @ oo   #####&&&&&&&&&&&&&#&&&&###############   oo + ;;;;;",
";;;;; o   ## ####           #&&#&&&#           #### ##   o ;;;;;",
";;;;;;  #### #&& OOOO%%%%%%% #&&&&# %%%%%****** #&# ####  ;;;;;;",
";;;;;;; #### ### OO       %% ###### %%       ** ### #### ;;;;;;;",
";;;;;;; ##&& &&# O --= ==- * #&&&&# % XXXXXXX * #&& &&## ;;;;;;;",
";;;;;;; #&&# &&& O -== =-= * #&&&&# % XXXOOOX * #&& #&&# ;;;;;;;",
";;;;;;; &##& &&& % === -== * #&&&&# % XXOOOOX * #&& &##& ;;;;;;;",
";;;;;;; &&&& &&& %         * #&&#&# % XOOOOOX * #&# &&&& ;;;;;;;",
";;;;;;; &&&& ### % ==- === * ###### % XOOOOOX * ### &&&& ;;;;;;;",
";;;;;;; &&&& #&& % =-= === * #&&&&# % OOOOOOX * #&& &&&& ;;;;;;;",
";;;;;;; #&&# &&& % -== === * #&&&&# % OOOOOOX * #&& #&&# ;;;;;;;",
";;;;;;; &##& &&& %%       ** #&&&&# * OO OOOX * #&& &##& ;;;;;;;",
";;;;;;; &&&& &&& %%%%%%***** #&&&&# * O $ OOX * ##& &&&& ;;;;;;;",
";;;;;;; &&&& ####           ####### * OX XOOX * ### &&&& ;;;;;;;",
";;;;;;; &&&& &#&&############&&#&&# * OOXOOOX * #&& &&&& ;;;;;;;",
";;;;;;; #&&# &#&&&&&&&&&&&&&&&&#&&# * OOOOOOX * #&& #&&# ;;;;;;;",
";;;;;;; &##& &#&&&&&&&&&#&&&&&&&&&# * OOOOOOX * #&# &##& ;;;;;;;",
";;;;;;; &&&& &&&&&&&&&&&#&&&&&&&&&# * OOOOOOX * #&# &&&& ;;;;;;;",
";;;;;;; #&&# ###################### * OOOOOOX * ### #&&# ;;;;;;;",
";;;;;;; #### ##&&&&&&&&&&&&&&&&&&&# * OOOOOOX * #&& #### ;;;;;;;",
";;;;;;; #### ###################### * OOOOOOX * ### #### ;;;;;;;",
";;;;;;; ####                        %         %     #### ;;;;;;;",
";;;;;;;;    ;;;;;;;;;;;;;;;;;;;;;;;   ;;;;;;;   ;;;;    ;;;;;;;;",
";;;;;;;;;;;;;;;;;;;;;;;;;;;;;;;;;;;;;;;;;;;;;;;;;;;;;;;;;;;;;;;;",
";;;;;;;;;;;;;;;;;;;;;;;;;;;;;;;;;;;;;;;;;;;;;;;;;;;;;;;;;;;;;;;;",
";;;;;;;;;;;;;;;;;;;;;;;;;;;;;;;;;;;;;;;;;;;;;;;;;;;;;;;;;;;;;;;;",
";;;;;;;;;;;;;;;;;;;;;;;;;;;;;;;;;;;;;;;;;;;;;;;;;;;;;;;;;;;;;;;;",
";;;;;;;;;;;;;;;;;;;;;;;;;;;;;;;;;;;;;;;;;;;;;;;;;;;;;;;;;;;;;;;;"
};
