/* XPM */
static char *result[] = {
/* columns rows colors chars-per-pixel */
"48 48 215 2 ",
"   c #0D3E19",
".  c #063F15",
"X  c #173A1F",
"o  c #1D3E23",
"O  c #233E27",
"+  c #014414",
"@  c #014B15",
"#  c #0B441A",
"$  c #0A4D1A",
"%  c #044E18",
"&  c #005117",
"*  c #035419",
"=  c #09521C",
"-  c #015A1A",
";  c #0B591F",
":  c #10541E",
">  c #01641D",
",  c #006B1E",
"<  c #1C4725",
"1  c #134D22",
"2  c #1D4A27",
"3  c #0E5521",
"4  c #0E5B22",
"5  c #155C23",
"6  c #185E24",
"7  c #1C5529",
"8  c #1C5D2C",
"9  c #105723",
"0  c #234328",
"q  c #204C2A",
"w  c #22522C",
"e  c #21582F",
"r  c #2F4E30",
"t  c #2C5B31",
"y  c #315835",
"u  c #0C6523",
"i  c #046D20",
"p  c #0C6A24",
"a  c #136126",
"s  c #1A6025",
"d  c #15632A",
"f  c #1B652C",
"g  c #156D2B",
"h  c #1A6A2C",
"j  c #146C26",
"k  c #027321",
"l  c #097224",
"z  c #017B23",
"x  c #097C27",
"c  c #0A7D2A",
"v  c #15742E",
"b  c #1E732C",
"n  c #137B2E",
"m  c #1C792D",
"M  c #1E6F30",
"N  c #1A7531",
"B  c #1D7936",
"V  c #177D32",
"C  c #256D2D",
"Z  c #23722E",
"A  c #22792F",
"S  c #296B35",
"D  c #386738",
"F  c #3A6A3A",
"G  c #376738",
"H  c #2A7532",
"J  c #277D33",
"K  c #227A39",
"L  c #2A7735",
"P  c #317D37",
"I  c #3D743D",
"U  c #018326",
"Y  c #008926",
"T  c #058328",
"R  c #0B842A",
"E  c #028D29",
"W  c #0A8C2D",
"Q  c #12852C",
"!  c #13882E",
"~  c #01932A",
"^  c #08952E",
"/  c #009A2C",
"(  c #099B2F",
")  c #0F8C31",
"_  c #138431",
"`  c #1D8634",
"'  c #158B32",
"]  c #1D8C33",
"[  c #1B8D39",
"{  c #1D8138",
"}  c #0D9432",
"|  c #0C9B33",
" . c #079930",
".. c #139334",
"X. c #1D9034",
"o. c #139B35",
"O. c #169439",
"+. c #159A39",
"@. c #1C9D39",
"#. c #248E37",
"$. c #2B8C39",
"%. c #288336",
"&. c #39853C",
"*. c #338C3D",
"=. c #39883C",
"-. c #259539",
";. c #2C923A",
":. c #249C3C",
">. c #229236",
",. c #32953E",
"<. c #00A52F",
"1. c #00A82F",
"2. c #05A532",
"3. c #0AA334",
"4. c #02AB31",
"5. c #09AA35",
"6. c #0CAC39",
"7. c #10AA37",
"8. c #12A539",
"9. c #1BA63B",
"0. c #12AB3A",
"q. c #1BA93A",
"w. c #14A336",
"e. c #02B434",
"r. c #0AB637",
"t. c #01BC36",
"y. c #0DB23A",
"u. c #07BD39",
"i. c #0BBC3B",
"p. c #16B43B",
"a. c #1DB33E",
"s. c #13BC3D",
"d. c #25A43D",
"f. c #2BA13F",
"g. c #25AB3F",
"h. c #00C237",
"j. c #01C539",
"k. c #0BC43D",
"l. c #01CC3A",
"z. c #0BCA3E",
"x. c #14C13E",
"c. c #01D43D",
"v. c #00DC3E",
"b. c #0AD33F",
"n. c #00E03F",
"m. c #3F8E41",
"M. c #2F9F40",
"N. c #3B9341",
"B. c #349C41",
"V. c #3C9A43",
"C. c #379740",
"Z. c #1DBB41",
"A. c #18BA41",
"S. c #2AAC42",
"D. c #28A940",
"F. c #33A443",
"G. c #3DA346",
"H. c #34AC45",
"J. c #3CA848",
"K. c #26B342",
"L. c #25BD45",
"P. c #2CBA46",
"I. c #2CB645",
"U. c #32B347",
"Y. c #35B449",
"T. c #3EB44B",
"R. c #36BB4A",
"E. c #39BC4C",
"W. c #448A44",
"Q. c #449546",
"!. c #439A46",
"~. c #499448",
"^. c #469E48",
"/. c #4B9E4A",
"(. c #489947",
"). c #45A449",
"_. c #4DA34D",
"`. c #45AD4C",
"'. c #49A94D",
"]. c #41B24C",
"[. c #16C540",
"{. c #1ECD46",
"}. c #1AC943",
"|. c #07D340",
" X c #09D340",
".X c #06DD42",
"XX c #0CDC43",
"oX c #14D544",
"OX c #14DD47",
"+X c #1ED549",
"@X c #1EDC4A",
"#X c #1BD347",
"$X c #25C446",
"%X c #22CC47",
"&X c #2EC54A",
"*X c #2BCB4B",
"=X c #32C44B",
"-X c #24D44A",
";X c #28D04B",
":X c #20DA4A",
">X c #02E441",
",X c #0CE345",
"<X c #01EB43",
"1X c #0CEA47",
"2X c #0DEF49",
"3X c #12E147",
"4X c #17E449",
"5X c #19E24A",
"6X c #11EB49",
"7X c #01F546",
"8X c #00FB47",
"9X c #07F748",
"0X c #0AF349",
"qX c #01FD48",
"wX c None",
/* pixels */
"k.v.-X-X*Xv....X-X-X>Xu u.5.&.i >X_ 8X[ ; p z k 5 * r.].} + /.~ :.].-X-X*Xp.Y.-X1.H 1.> Z XXi.T.",
">X- 6.y.Q.k h.* ' / Q.t.~ Z t.[ ].e.j.i z *X=X6.m ] oX5XP.&.@X'.4X8Xc.+.H e.i.OX:X=Xh c.n.W d.].",
"Q.j.E %.j.N *.j., %.@Xl.= _.E Q 9XqX8 _.Y } =X4.H V.3Xg <Xl.s & h c.e.m 1.6X3.v.L @ + # 9X4X8.y.",
"*Xj.# _.E R _.| : C.`.#.@ *X2Xo.R.T.- '.6X:X6Xc.T ' P.- E # @ c.k.=X1 _.Y *.x.n.k k J.0XXXc.z z ",
"_.b + 4X0XW _.@ ; 0X=X..Y 5 t./ (.l.j.z e.5X<XQ > Y b.6Xt.!.U r 6Xl.@ &X9X9X3X8 Q.U l `.E.oXU.0X",
"-Xv , 2 h.Y 8Xw & f _.+ . 8X8X/.`.@ . 8X8XR.-X8X8X&X4X1Xt././._.8Xk.^ a h.=X_.+ Q.qX9Xe.>XB.Z...",
"'.+ + 8X8X'./.+ , 8X@X8.t.8X8X_.Q._.@ `.7Xc.^ qXv t.W.8X8Xz 0 <X7 8Xg v.8X=Xc.3.k t.7XqX8X'._.qX",
"4.7X7X_.e.q >X1XT.f c.c.k j...,.(.j.j.Y i.b.E _.* z =.h.2 E ~ $ `.=Xe.~ B S.h $ >X7X/.7X< z.t.C ",
", h.W B., : 2./ E.1.z `.<X<.V.e.].9 7X3.7X7XQ.8X-XQ r.H.!.s.c.F.e oX=X>Xx ] B.XX9XT.8X(.> Y = / ",
",X/ V.e.y '., ).k.R.b.-Xn.$ _.` ' E.4X~ l.f j 5X=X/ =.R.R.8X8XW _.<.=X| >X<XR.R.5X<Xk.0X.Xx _.~ ",
"v.= _.#.] =X+ /.w.E.3.].w., b..XE g =X7Xl.;./ _.7Xb.z v 7X@XqXc._._.=XY v.= ..u.Q.E / -X}.z `.=X",
"p.k z.c.E n - .XoX*X/ *Xn.z.-X;X-XH qX7Xj _.#._.6.3 ~ t.b /.7XQ <X#X<Xn &.~ z h c.8._.`.c.h.T | ",
"| = p / > ;.+ u 3.<XQ -Xs.| j.{ & + _.-X/ 9.6.v.A.=X' d.-._.*Xk 4.N S.H *Xy.= _./ #._.'.z   j.j.",
"e.t.=X=X@XqXt.=X&X$Xe.v.P.w.j.> , =X_.t.a z / k H.T.k m.@XqX@X<Xt.V./ F T...@ -X@XX.' qX{.;.1.-.",
"j.u +.c.(.t.| V t.=.| j.qX@Xv N.R p 4X=.&.c.qX5X`.E.qXz.z.qXqX7XR _.C.C.-X..k d t.U ~ j.c._.Y n ",
"-XV.3XU.1Xc.N.- * ,Xc.G.6XT.5.v v c.6X4XB.c.+.9 6.<X6XU.Q.c._.6Xz.'.qX%X7X~ + >X>Xm.f b.6X@X;.l.",
">X0X=Xs j.8X'.= !.| P.*XO.P @ @ j.+ 4.e.m.@ ~ @ , t.h v.t.= + 7 XXj.C z Q =X@X7X~ x t.- | / P @ ",
"1.K > : + 7X8X$ _./.=XqX;.4.t T.`.7Xz !.k.N =X8.z _.+ k + . 8X1X,.+ Y 7X&X@X5X7 Q.U ).7Xx ,.Z.O.",
"8Xx ! J.>X9Xh.z 3.c.u v._.x T _._.j.+ ^.U ` '..Xz :X4X3.Q.T O 2Xc._./ D *X_ t.qXqX_._.e.: C.U >.",
"Q $.X.R `.>X7X`.E.#X8XqXqX_./.qX8X8X`._.9X=XqXqXe.j.:Xe.Q.`.`.7Xc._.`.).<Xl.> t.2.`.`.* ; 7X8X/ ",
"t.R >X<XB.j.+ 8 4.&.c qX_ v.<XF.qX8 4.|.XX&.e.8.qXY.7X<Xz 7 8X7 h.W n j.R '.>XE ^.t.qXh i S  X^ ",
"9./ 4.e @ s z * 9 <XXX=X/ / f * _.<.@ ^ Y g.z o.qXH.y.1 / 1.6 R.f.1.1.6 E.=Xc.+ _.' =Xf e.|.[.H ",
";X:.<X7XR _.g $ V.^ S.4X-X|.Q Q 8X_.y.i !.0.:.*X_.k.-X,.5.a.&X` ;Xx.XXq.6.E.o.> .X>XU ~ - c k q.",
"z f 3 >X;._.Y $ *X&Xa.6X-X} &.;.-X_.h.$ ).#.d.*XqX@XQ =.R 5 n ~ 0.k.P 3.7.:X) $ 5 4.> `.y.p ,.@.",
"j +X.X&Xo.qX..> n c.l _.-X1.y.v.-X-X*Xv.6.<Xx r.*XE.z m.-X-Xz @ l , x.1.R.-XH H v.qXZ `.e.5 !.;.",
"#.x I.E.~ qXv.@X@X=X) y.v.n c.* | t./..X<XY.;.h.=XqX>Xk ) 8X'.' u ,.w.K.&Xv.* _.c.c._.@Xt.l r.<X",
"5X4Xt.,Xc.qXk.7XJ.N.c.K.p.c.4X4XE.c.N 7Xd  Xc.P v.|.Q.C.v.j.4Xt.: /.$Xo.XX6X=Xb 3.<XqX7X) * x Y ",
">X`.Q.8X9X_.8X7 .Xc.Z z v.> j.6.Q.- > H.* Y $ ^ l.4 ' c.Q.t.5.v.z 6.n.e.1.K , : > 5.- 4Xm.f.l.-X",
"$ ..j.m.e.7X`.@ Y # U n./.>X/ *.t.e _.6X.X<.i.j.m + > @ XX<XQ.(.<XU.:XL.n.k Q Y.`.* @ @ @ 7X>X).",
". > + b.7X'.9X>X1._.~ F *Xc.# _.<X8X_.0X7X/ >XU *X` , _.<X0 7Xj.9 > _ &Xn P ] U `._.0 $ V.| =X*X",
"..i _.e.~.'.9X7Xc.t.8X8X_.E d 8X8X0 7X`.8Xv._.8X*Xc.> '._.+ U + , 8X@X_.@ P 7X8X0X_.t.$ _._.=X8X",
"b., '.`.).]._.7X,X~ v.N J - = f '.* E `.e.X @X>X-X<X/ 5.>X8X5._.E t -Xn.Q , | .X6XqX>Xz | c.u c.",
"8Xt.0X6X]._.8XqX>X7Xh.;.<.G R.7XqXqX3.6XV.!.'.>.*X4.  / ,X6X<._.T.T.4X$.; t.2X8X8X].T.0X8X1XA `.",
"c.R >X>X;.# } >Xe.<Xv ].' ( '.wX5X5X~ _.=XY.=X} j.C.,./ '.qX7X] S 8X] n.7Xg.6 3.<Xh j.h e.b.x.H ",
">X=X=X@X.Xi.Y @X'.-Xn j.c.d.6 } <X>X=X=X:X:.c.j.Y @X:X=X=X8X^ 7X<X=.k n +.- | Y +X- h ~ - c k q.",
"4 5.y.m.z c.qX-X`.>X[.j.' - 3./ <Xn qXO.9 * 3 k.R z.>X(.e.v U t.7 p / Q g.#.$.,X0X-X8X-Xy.p ,.9.",
"4.Y b j.+.qXv 7Xv.P k n x.] %.,X_.4.t.> z L.@X0.- ~ p a.1.J 8Xl.,.~ F -X*X,.;.$X-XZ n.8Xe.6 !.;.",
"u.| @XK./.=X, 4.1 , t.o.].V.,.%X9XqXH.'.z.s.0XT.i.Y ^.e.I _.8XR _.,.,.@Xa.7.7Xg 7X+ # 9Xt.l u.<X",
"] j.v v.j.5XqXh.!.~ D -Xi.<XqX6X/.E.5XqX7X2.k.-Xv.> /.C.C.4X4Xt.....l.n t.T U $.=.R.9X3X>Xc.5X3X",
"} L.- Y # qX8X ._.V.!.6Xe.z.j.; N c./.e.r.v.!.2.,X/ u.r.~  X7X).F.OX7Xn.a.l.R.8 9Xl ].J.7XW v.[ ",
"8X%X9Xc.,._.0Xc.^ v l.v n.P.j + - @ 9X<X(.U.i.j.0X9X`.e.8 e.- qX8X/.'.7X@X9Xz Q.9X0Xh.qX/.<Xh.` ",
"8X8X_._.9X_.h.O z U + )._.9XR.h * _.t.'.T.R.<XU v...&.+ @ @ + 8X< k.h.C Y ) v.<XqX'.@ e.qX9X_.z ",
"n.  8X8X8X9X_.'.j.l.%.K ^ n.R.l.- _._.`.qXl _.qXe.,.e.r 7XqX_.(.+ k # ~ qX&Xs.c.y @ @ @ <XS h @ ",
"H - v.d l.+ q i.$ , + $ 8XR.<X8X`.`.6X8X<X<X5X>X1 _.E R j.. q 0X|.e.7XqX(.~ h 8XR x ~.2X>X#./ F ",
"&X..G.> s , @ p ].h h ;.n _.c.+ f h././ t.c.=Xn v.>XS.9 6 , @ 4XXXW l.v A , ; b Q.! Q T.B._.Q Q ",
"=Xr.n.6X`.f + '.]./ s E.R.}.C z - 6 <Xz._.B.E./ ~ f - R `.f + `.E.<Xt.,.1.D R.~ ,.k.8X} v.K.c.j.",
"-Xk.3X;X'.~ + R.8Xk.k n >Xa R.' @ _.<.f.].$X=X*Xc.n ] *.'.~ + '.1X<X4 _.] ] =X+.k 1.e.] 6 l 4.~ ",
"E.Y &.<X0X7.> ` }.l , t.' g.].( @ *X*X:.y.v.y.*X^ P ,.#.9X8.> 0.`.L.U p.k.e.n ] c.n._.0.>Xn.<Xm."
};
