/* XPM */
static char *result[] = {
/* columns rows colors chars-per-pixel */
"48 48 229 2 ",
"   c #55270C",
".  c #58290C",
"X  c #583015",
"o  c #663013",
"O  c #673E22",
"+  c #0A4C1C",
"@  c #024A18",
"#  c #03521B",
"$  c #0A551C",
"%  c #035C1B",
"&  c #0C5C1E",
"*  c #005516",
"=  c #094A17",
"-  c #01641D",
";  c #016A1E",
":  c #0B671F",
">  c #00731F",
",  c #0D5C21",
"<  c #175823",
"1  c #0C6423",
"2  c #026B21",
"3  c #0C6B24",
"4  c #046421",
"5  c #136425",
"6  c #1B6426",
"7  c #1C6C2A",
"8  c #166927",
"9  c #037322",
"0  c #0A7225",
"q  c #027C23",
"w  c #0B7A28",
"e  c #13752C",
"r  c #147C2D",
"t  c #1B742C",
"y  c #187A31",
"u  c #177431",
"i  c #246A2C",
"p  c #296D35",
"a  c #386C3A",
"s  c #297834",
"d  c #327E37",
"f  c #337439",
"g  c #23792F",
"h  c #575C37",
"j  c #505424",
"k  c #7A5235",
"l  c #72492B",
"z  c #7E7837",
"x  c #575E26",
"c  c #B55C00",
"v  c #BB6300",
"b  c #B16309",
"n  c #AD6B11",
"m  c #987521",
"M  c #9D6B17",
"N  c #C16B00",
"B  c #CB7700",
"V  c #D07C00",
"C  c #CD6230",
"Z  c #896849",
"A  c #9C7F5D",
"S  c #A74B4D",
"D  c #EC6974",
"F  c #028425",
"G  c #008B27",
"H  c #048529",
"J  c #0B842A",
"K  c #038C29",
"L  c #0B8D2D",
"P  c #098827",
"I  c #14862D",
"U  c #02942B",
"Y  c #019B2C",
"T  c #07942C",
"R  c #0D8431",
"E  c #0D8C31",
"W  c #148332",
"Q  c #138C33",
"!  c #1C8C33",
"~  c #1B8432",
"^  c #0C9433",
"/  c #059E31",
"(  c #0C9C33",
")  c #0D9C38",
"_  c #139434",
"`  c #1A9234",
"'  c #139D37",
"]  c #228A36",
"[  c #2A8838",
"{  c #35833A",
"}  c #328A3C",
"|  c #3A8B3E",
" . c #398436",
".. c #2C943C",
"X. c #25963A",
"o. c #33963F",
"O. c #329B3F",
"+. c #01A32E",
"@. c #04A432",
"#. c #0CA334",
"$. c #03AC33",
"%. c #0AAB35",
"&. c #0DAB38",
"*. c #0FA538",
"=. c #13A236",
"-. c #1DA53C",
";. c #14AC3A",
":. c #17A43A",
">. c #02B434",
",. c #01BB35",
"<. c #0BB53A",
"1. c #0BBC3B",
"2. c #06B638",
"3. c #14B33B",
"4. c #14BB3D",
"5. c #25A83E",
"6. c #428739",
"7. c #6E833C",
"8. c #00C137",
"9. c #03C33A",
"0. c #0BC43D",
"q. c #02CC3B",
"w. c #0BCA3E",
"e. c #15C13F",
"r. c #02D33D",
"t. c #01DB3F",
"y. c #08D13F",
"u. c #00E23F",
"i. c #3B8C41",
"p. c #3A9541",
"a. c #369B41",
"s. c #3B9A43",
"d. c #339440",
"f. c #1CBD42",
"g. c #25AD40",
"h. c #2CAB42",
"j. c #2DA744",
"k. c #3AA444",
"l. c #33AA45",
"z. c #3BA947",
"x. c #38A746",
"c. c #24B441",
"v. c #2CB444",
"b. c #23BC43",
"n. c #2CBC46",
"m. c #32B446",
"M. c #37B548",
"N. c #3DB54B",
"B. c #35BD4A",
"V. c #3ABB4B",
"C. c #419544",
"Z. c #479E48",
"A. c #4A9D49",
"S. c #439B46",
"D. c #558846",
"F. c #4CA24C",
"G. c #43AC4B",
"H. c #48A94C",
"J. c #43A248",
"K. c #41B24B",
"L. c #73AE47",
"P. c #0DCD41",
"I. c #0FC042",
"U. c #1CC643",
"Y. c #11CB41",
"T. c #16C742",
"R. c #06D540",
"E. c #0CD441",
"W. c #03DC41",
"Q. c #0CDC43",
"!. c #13D443",
"~. c #1CD446",
"^. c #13DC45",
"/. c #19DA47",
"(. c #1CDC49",
"). c #1ED548",
"_. c #23C346",
"`. c #26CE4A",
"'. c #2BCB4A",
"]. c #27C647",
"[. c #32C34B",
"{. c #24D349",
"}. c #27D34A",
"|. c #02E442",
" X c #0CE445",
".X c #02EB44",
"XX c #0AEB46",
"oX c #0DEC48",
"OX c #0FE748",
"+X c #13E649",
"@X c #19E149",
"#X c #11EA48",
"$X c #10E447",
"%X c #01F445",
"&X c #01FC47",
"*X c #0AF248",
"=X c #05F848",
"-X c #1CEB50",
";X c #43C350",
":X c #8C8B30",
">X c #DA8800",
",X c #E69700",
"<X c #F2A500",
"1X c #F4A901",
"2X c #F9AE00",
"3X c #FFB500",
"4X c #FFB809",
"5X c #F7AF0B",
"6X c #D9A024",
"7X c #FFC319",
"8X c #FFC323",
"9X c #FFD53F",
"0X c #818F46",
"qX c #AD9573",
"wX c #85A04A",
"eX c #FFD14D",
"rX c #FFE75A",
"tX c #FEDE7D",
"yX c #FF7092",
"uX c #ED6985",
"iX c #BAA582",
"pX c #DBCFA8",
"aX c #EBE3BC",
"sX c #FEF3BB",
"dX c #FEEAA1",
"fX c #FEE28A",
"gX c #FCF7CC",
"hX c #FEFAD1",
"jX c None",
/* pixels */
"[.0.- K.M.l.V.$.6 M.[.R.+.U &.+.p.|.q.F R (.|.W - J 5./.r.I L | ~.|.q H.M././.E } E i {.E.P ] M.",
"'.q.G %.1.( (.9.q ( [.@.+ K Y : G.,., F Y ! 5.- +.t.XX/.e | I I B.b.@./ &.=X{.T i.x.j.!.Q.).8 ^.",
"}.@.+ 0 U 3  XE * q @X{ { t..Xs U.o. .w.|.O.` &X&.Q.'.N.; s.@XU.<.|.t.-.x.K.(.,.L ) u.e ^.o._ b.",
"'.i t =X*X`.S.t >.&X(.1.H P.W.i.| _.F :.1.r.W &X^ $.o..Xq.q W t.0 q.r 8.w.n.r.r ; T +.y.|.`.'.{.",
"$..X.XC.Y y |.Q.B.r q.w.> 8.W [ a.,.@.J <.w.U F.% q } ,.< F U & z.[.$.U y h.7 , q.&XG.|.< 2.2.i ",
"9 9._ [ * 2 *.T m.,.G J.u.$.[ >.H.3 9.2.XX*XG.*X}.^ 2.m.C.1.r.O.u ).b.|.9 ` j.f./.G.^...* q @ U ",
",.U g 2.' V.q g e.X.9.}.0.# F.G ( H. XH q.! 7 &X}./ d s.O.].Q.$.p.$.'.W P.Q.p.B.XXOX%X}.E./ s.+.",
"<., F.U [ N.8 s.,.[.r [.&.% B.`.5.1.z.T Y : U F.`.U I 1..X^. X0 A.g.V.F <.J P.W.| +._ #XXX1 A.] ",
"1.- N.B.h.P.3 V.'.V.T `..X8.;.-.$.3.+XY.w Z.U F.u.I ; L >.k.XXW.B.N..XP.1.; @.w X.q W K.5.> c.y.",
"W.Y @.%.T @.F #.3.#Xr.'.W.) Q.XXm.e @XQ.K F.z.G.] $ >..Xl.z..X5 1.f.R.e S.W.Y } 2.[ B.[.2.T 3 $.",
"$.+ 9 U % p.$ q ` |.W +XU.$.,.s 3 p k. X>./ ^ r.-.'.y ..] s.h.% j X b.i.`.9.+ F.G I H.H.; @ t.u.",
"+.+.}.`.}.=X8.{.}.c.+.q.b.L >.- 0     d.3 9 / F c.B.q } }..XB.j     ( a N.#.% [.}.5.<.&Xb.o.$.5.",
"&./ W..XC.+.~ W.!.d $.&.&X).R { E       h |.&XB.[.+X&XT _ }..       ~ L {.R.Y L %.T $.u.9.A.U p ",
"W.w w.=...; w ^ F X.; &.V.+XI.E.r.. . o   j .X>.Q.OXB.5.6..     D   ^.f.(.$.= T Y 0 r.E.M.[.f.|.",
"`.H.(.B.&X=XB.9 g T.;.[.q.{ G E %.  S yXo c v N b I.:Xv c c M uXyX  x.T #.c.} t. X~ ( G ( %.s L ",
",.1.' 6 E W.K.8 s.F 5.N.1 _ $.! E   S yXc <X3X3X2Xb V 2X2X<Xc D yX  i % , +X/.2.] Q P ; 3 ; 4.+.",
"G 7 - E 9 T.E.3 B.[.b.W.O.+.a [.[.  o D >X3X3X3X3X>X3X3X3X3X,XC D   L !.'.@X#Xs C.;.V.r.w o.;.5.",
"&XF ! j.Y.Y.>.G ^ q.1 t.F.F J H.K.  . C 1X3X3X3X3X3X3X3X3X3X<Xc c c 0Xa `.Q ,.%XXXK.[.#.< a.F X.",
"y d ! w m.%XE.p.l.^.|.t.#XF.H.&Xm c c c <X3X3X4X3X3X3X3X3X3X<X<X1X1XN b #Xr.; 2.( p.H.3 , +XOX%.",
"8.,.^.}.}.( U ;.1.d / &X1./.}.b N 1X7X3X3X3X3X5X3X3X3X3X3X3X3X3X3X3X3Xv 0X| $.q 7 1.XX&.9 r t.0 ",
"y.L ,._ 9 Y ; J > -.G oX^ $. .N 3XrXrXeX3X3X1X4XsXgXgXsX3X4X3X3X3X3X3X3Xc '.#.: F.#.{.w.^.[.`.g.",
"b.3 U 3 : z.w.q } 3.:.K.9 G b 2X3XrXrX7X3X3XgXhXgXgXgXgXgX4X3X3X3X3X3X3Xc [.2.% K.n.u.&.F Q T s ",
"`.g 9.P._ [.%.< s.F X.=X{.) c 3X3XrX9X3X3XsXl m hXhXgXgXqXgX3X3X3X3X3X3Xc '.W.U %.8.( : - * # Q.",
"q 7 # w.a.G.q , {.(.3.@X{./ v 3X3X3X3X3X3XhXiXX hXhXgXl pXhX8X3X3X3X3X3Xb ).Y # 9 U q V.#.e ..` ",
": Q. XB.f.XX9.q w R.9 F.[.K c 4X3X3X3X3X8XhXk   hXhXhX  Z hXeX4X3X3X3X>XwX[.i 7 u.XXO.[.$.6 p.! ",
"] e U.`.^ OX.XM.N.OXc.|.|.E L.,X3X3X3X3X8XhXl   gXl hX  Z hXeX4X3X3X1Xc `.t.+ F.Y ( F.K.9 8 XX%X",
"z.x.U. Xt..Xe R.P.s H i.-XR.N.c 2X3X3X3X3XhXgXpXgX  gXpXgXhX6X4X3X3X3XB m M.U.m.#.t.(.XXQ ; e r.",
"<..Xe W.jX{.XXq./.(.[.      h :Xc 3X3X3Xn aXhXhXaXqXqXhXhXaX  3X3X3X3X3Xc 4.` 8 r.;.w.h.- 9 q.:.",
"|.`.].`.w.).%Xe 9.=.7 h     X c <X3X3X3X2X  k l l hXiX    o <X3X3X3X3X3Xc 5 - =.[ 9.2 Y...d.K 4.",
"+ ( >. .F Y.p.; F # G Q.H.| l b 3X3X3X3X3X3XeXhXgXhXhXhXdX3X3X3X3X3X3X3Xc w ! j.V.8 > % # XX|.G.",
"@ % @ 8.%X[.+XY.U A.Y a `.r.m >X3X3X3X3X3X3X3X4XfXdXtX4X3X3X3X3X3X3X3Xc D.d ! G [.[.e 5 p.^ [.`.",
"<.G S.@.{ [.oX Xr.r.(.@XB.#.L.,X3X3X3X3X3X3X3X3X3X3X3X3X3X3X3X3X3X3X3Xc 2 s @X(.}.[.8.5 Z.a.c.@X",
"t.$ F.] X.H.H.f.u.1 0.*.s ; a V 3X3X3X3X3X3X3X3X3X3X3X3X3X3X3X3X3X3X3Xv 9.9 W |.@X[./ 3 q.|.H <.",
"=.; @X*X:.{.[.w.5.F G , +.0.V.c 2X3X3X3X3X3X3X3X3X3X3X3X3X3X3X3X,X3X,Xc 3 > +.U V.{.! H _ |.q r ",
".Xu.}.[.}.m..X.X( P.K Z.+.f B.L.c <X3X2X3X3X3X3X3X3X3X3X3X3X3X3XV v n '.k.~._.%X&X^.XX X+XV.n.n.",
">.t 8.2.r 3 e 9.G &Xq.[.s.e.B.%X;Xc c c 1X3X3X3X3X3X3X3X3X3X3X3Xv -Xc.=X|.L 7 r |.&.1./ G ^ #.s ",
"u.}.}.].0.1.@.~.N.@Xr ,.1.' 7 E r.r.{.:X<X3X3X4X3X3X3X3X3X3X3X>Xc [ 9 r ) - $.Y f.9 ] P 2 0 4 4.",
"+ ( >.d q 1.*X^.V.|.9.>.! 2 Q 2 r.8 9.j.c 2X2XB v 3X3X3X3X3X,Xc p e 9 2 3.` d.Y.(.@X=X{.W.q ..-.",
"- 9 $ 2.r.|.%.XXXXz.w _ ,.! h.P.J.- G + d c c n 7.c N >XV v c _.~ T { }.[.] J j.B.v.%X&X( 6 d.J ",
"1.K k.%.i..XJ q.W 7 - , '.] w v.`.^.%.o.( f ).U.,.( 7.m m :X|.5 A.P r N.N./.(.2.!.1 e  Xq 6 (.@X",
"t.w.w./.{.J./ $.3 G b.{.V.}.{.}.'.oXK.(.E.t.0.B.1.& A.U ] K.f.; z.}.5.1.,.r |.3 +.%./ _.&Xq.d._.",
"=.q.I ,._  XE.w S.U i [.&.r.E.|.[.'.`.|.R.q ,.{.1.4 N.n.h.w.|.9.P E r.r >.$.I j.].} !.Q.w.T W.|.",
"R 5.* q @ Y.^.U A.z.J..X8.q.q.$ W $.{ L 2..Xz.$.XX%.$.&.>.|.$XH.B.~.%X%X4.w.n.< ^.J z.H.Q.F r.~ ",
"=X].=Xr.} K.XX8.( W q.r u._.e # - # r.t.k.v.1.q.oXOXN.$.! $.q &X&XZ.z..X{.%XG } XXQ.$..XA.t.,.y ",
"{.r.} d.U.K.9.3 9 U > ..| @XV.<.q S.#.d.[.g.|.4 9.=.d - 0 P % t.0 r.t.{ F W u.^.{.`.! 9.XX{.`.' ",
"&.Y &X=Xn.v.i 6 u.%XS.!.Y u.[.q.$ Z.! X.[.K | q q & >.w.}.[.@XY.q ,.7 y q e ` ,._ : 5 , w.*.7 ; ",
"9.; .X#._ ,.!.$X$.G r 0 ` X.B.E 1.@XV.N.=X_.}.1.9 A.Y [ ) >.E.N.r.t.l.m.#XT.E.>.$ ; y.!.5.$ P w.",
"S.q..X$.8.; ( ;.5.q.> ~ U.| =.q.@X^.x.,.*.|.*X.Xc.H.T.c.,.; ) /.Q.1 0.q.d F L q.} L p ).1.S.Y a "
};
