/* XPM */
static char *result[] = {
/* columns rows colors chars-per-pixel */
"48 48 229 2 ",
"   c #39290F",
".  c #3C281A",
"X  c #3D2825",
"o  c #503A0E",
"O  c #502E1B",
"+  c #453616",
"@  c #55351A",
"#  c #6A3F1B",
"$  c #4F3124",
"%  c #5B3926",
"&  c #653D27",
"*  c #6B3F30",
"=  c #514B16",
"-  c #5D4619",
";  c #6D4017",
":  c #6B431C",
">  c #6F551D",
",  c #5A761A",
"<  c #565023",
"1  c #6C4C25",
"2  c #69462A",
"3  c #6C462A",
"4  c #734B26",
"5  c #754827",
"6  c #724A2C",
"7  c #794D2B",
"8  c #685620",
"9  c #775528",
"0  c #7B522C",
"q  c #79592C",
"w  c #6F4B33",
"e  c #714733",
"r  c #744C33",
"t  c #7A4E33",
"y  c #6F5132",
"u  c #755532",
"i  c #7E5533",
"p  c #7F5933",
"a  c #7C543C",
"s  c #5B7424",
"d  c #5C722B",
"f  c #5F7629",
"g  c #6A6528",
"h  c #766B2F",
"j  c #637C24",
"k  c #637B2B",
"l  c #66782B",
"z  c #75742F",
"x  c #6A6733",
"c  c #786C37",
"v  c #647634",
"b  c #657D31",
"n  c #687D37",
"m  c #747236",
"M  c #7B7436",
"N  c #7C753A",
"B  c #737D3B",
"V  c #797838",
"C  c #7C5041",
"Z  c #776079",
"A  c #86592B",
"S  c #825534",
"D  c #895634",
"F  c #855A35",
"G  c #8A5B36",
"H  c #825639",
"J  c #855C3B",
"K  c #8B5D3A",
"L  c #925B33",
"P  c #945E3A",
"I  c #856A2C",
"U  c #876A2D",
"Y  c #90602F",
"T  c #83752E",
"R  c #8D6135",
"E  c #8A6B37",
"W  c #8F6139",
"Q  c #936236",
"!  c #91623A",
"~  c #9B643D",
"^  c #946C38",
"/  c #9E6C3E",
"(  c #837A3C",
")  c #8A7A3A",
"_  c #98753C",
"`  c #A06C3E",
"'  c #A3713C",
"]  c #A9743F",
"[  c #8A5A41",
"{  c #915E41",
"}  c #8C6946",
"|  c #946442",
" . c #9D6542",
".. c #976845",
"X. c #9E6D41",
"o. c #9D7346",
"O. c #997940",
"+. c #A26D42",
"@. c #A86B45",
"#. c #A26C4A",
"$. c #A47244",
"%. c #A97545",
"&. c #A77845",
"*. c #AC7A45",
"=. c #A6754A",
"-. c #AA7749",
";. c #A57A4D",
":. c #AB794B",
">. c #B17642",
",. c #B17C45",
"<. c #BB7B45",
"1. c #B37D4B",
"2. c #BC7D49",
"3. c #A06E51",
"4. c #A77552",
"5. c #AA7654",
"6. c #AC7A53",
"7. c #B87F52",
"8. c #876968",
"9. c #C07F4C",
"0. c #668326",
"q. c #6C8527",
"w. c #66832A",
"e. c #6A852C",
"r. c #6A892C",
"t. c #738B2D",
"y. c #78892E",
"u. c #77922B",
"i. c #7E992B",
"p. c #668131",
"a. c #6D8433",
"s. c #6D8A33",
"d. c #6B823C",
"f. c #748437",
"g. c #7C8433",
"h. c #748D33",
"j. c #7C8C33",
"k. c #78853B",
"l. c #748E3B",
"z. c #6C9130",
"x. c #759234",
"c. c #7B9234",
"v. c #7E9833",
"b. c #76933A",
"n. c #7C943A",
"m. c #7D9A3C",
"M. c #7CA038",
"N. c #768745",
"B. c #7C9541",
"V. c #7E9B45",
"C. c #8A8F37",
"Z. c #858D38",
"A. c #839037",
"S. c #839C34",
"D. c #839C3A",
"F. c #939C37",
"G. c #86A135",
"H. c #8AA436",
"J. c #8EAA36",
"K. c #85A23A",
"L. c #8BA53B",
"P. c #8DA93D",
"I. c #98A73D",
"U. c #93AD3C",
"Y. c #95B236",
"T. c #96B33D",
"R. c #9AB43E",
"E. c #94BA3C",
"W. c #9CBA3E",
"Q. c #838945",
"!. c #839C43",
"~. c #8A9945",
"^. c #969D48",
"/. c #859159",
"(. c #AC8249",
"). c #BA8247",
"_. c #B5824B",
"`. c #BA824C",
"'. c #BA8654",
"]. c #84A242",
"[. c #8BA541",
"{. c #8FA942",
"}. c #8DA54B",
"|. c #93A543",
" X c #95AC42",
".X c #99AC44",
"XX c #96A24C",
"oX c #95AB4B",
"OX c #9AAC49",
"+X c #96B342",
"@X c #99B544",
"#X c #96B941",
"$X c #9CBA42",
"%X c #95B349",
"&X c #9BB449",
"*X c #9DBA4A",
"=X c #96A956",
"-X c #9DB256",
";X c #A2AB4B",
":X c #AAAA4F",
">X c #A2B643",
",X c #A2BC43",
"<X c #A2B54C",
"1X c #A1BD4A",
"2X c #A1A050",
"3X c #A4BA53",
"4X c #A5B956",
"5X c #858E64",
"6X c #99A969",
"7X c #A8B96A",
"8X c #A5B471",
"9X c #C2814E",
"0X c #A4C245",
"qX c #ACC25D",
"wX c #B4CA59",
"eX c #AFC465",
"rX c #B1C66E",
"tX c #BACB75",
"yX c #BED172",
"uX c #ABB481",
"iX c #BFD180",
"pX c #C2D383",
"aX c #C9DA89",
"sX c #D4E58D",
"dX c #D2E391",
"fX c #D9EC93",
"gX c #D9E798",
"hX c #DDED99",
"jX c #DFF19E",
/* pixels */
"@X@X@X@X@X@X&X@X@X@X@X@X@X@X@X@X@X@X@X@X@X@X@X@X@X@X@X@X@X$X@X@X@X@X@X@X@X@X@X@X@X@X@X@X@X@X@X@X",
"@X@X@X@X@X@X@X@X@X@X@X@X@X@X@X@X@X@X@X@X@X@X@X@X@X@X@X@X@X&X@X@X@X@X@X@X@X@X@X@X@X@X@X@X@X@X@X@X",
"@X@X@X@X@X|.a - T.+X@X@X%X@X;XA - +X@X@X@X@X<XZ.4 :X>X@X@X@X@X+X_ 9 ^.@X@X@X@X#XY.A : +X$X@X@X&X",
"@X@X@X@X@XO.1.o.@X@X@X@X@X#X_ (...+X+X@X@X@X@X' `.o @X@X@X@X@X+X] (.4 R.@X@X@X+X.X).' =X@X@X@X@X",
"@X@X@X@X1X*.2.=.y.@X@X@X@X@X:.`.%.A.@X@X@X@X<X`.`.X.@X.X@X@X&XE.`.1.#.E.@X@XR.E.0 ,.1.% $X@X@X@X",
"@X@X@X@X&X-.5 3 Z.@X@X@X@X.X@.4 1 A.+X@X@X@X&X` : 6 +X@X@X@XOXE./ ; 6 E.@X@X@XE.7 A # $ >X@X@X@X",
"@X@X@X@XR.%.%.Q < E U I I h #.%.Q - E I I I q 1.X.H > U I U I q 1.X.q 8 I I I M 1 6.+.$ T.@X@X@X",
"@X@X@X@XR.%.%.! 2 +.`  .L F #.%.Q 5 / +.P P r *./ H D +.+.L L S 1.X.i p +.+.L F 1 1./ $ R.@X@X@X",
"@X@X@X@X,X1.K 6 & 5.5.o.| 7 #.%.R w 5.4.3.| S 1./ i [ 6.4.| | C ,.+.p A 4.4.{ J a Q S o T.@X@X@X",
"@X@X@X+XQ.K 2.$ q V N m V g o.=.Q y m N m m c 1./ i N M N m c c ,. .p V N N m z y ..| 2 ^.@X@X@X",
"@X@X@X%X2.*.t $ k.@X&X@X@X&X@.=.Q A.$X@X&X@XW.,./ i @X@XW.R..XE.,.#.H E.@X$XT.E.7 | Q *.p $X@X@X",
"@X@X@X|.`.:.! u j.@X@X@X@X@X@.%.Q A.&X@X%X@XW.1./ i @X@X@XR.R.E.*.+.p T.@XR.@XE.7 [ '._.$..X@X@X",
"@X@X@XI.9X6.% C g.$X$XY.@X$X+.%.! K.@XE.@X@X&X:.^ D P.P.P.[.@X^._.X.i M.H.n.x.x.0 R ~ :.p @X@X@X",
"@X@X@XI.`.+.w W j.*X0.t.h.@X=.&.g , l.s @X@Xj j z.s L.P.P.h.s e.(  .i , s a.n.x.7 %._...F #X@X@X",
"@X@X@X^.=.X.y Q y.Y.x.b.b.f o.$.^ w.r.b @X@X Xr.p.f P.P.P.h.j h.k #.q m.x.m.a.x.g :.`.$.J T.@X@X",
"@X@X@XF.;.X.e ;X@X@X-XfX=X{.E.;X;XhXpXN.@X$X%XjXaXN.L.L.P.-XdXpXA.~.M.-XdXN.j.j.S.V _...J @X@X@X",
"@X@X@XF.H X.5 +X@XT.R.0X3X$X$X%X*Xk 0X$XW.*X*Xj $X@XT.T.j j T.T.T.U.T.@XOXOXS.c.c.0.>.=.2 T.@X@X",
"@X@X@XF.3 X.6 @XW.B.S.0.1X$X,Xj 0.a.k +XT.0.w.s.a.J. XK.n.l.b. X.XD.s.n.j L.L.H.v.0.>.:.& $X@X@X",
"@XT.@XU X.4 a @X@Xa.l.m.e.@X+XJ.tX7Xn $X@X{.pX7Xv L.P.P.=XrXN.L.D.L.h.a.h.[.c.A.n.0.1.+.X.g @X@X",
"@X#X@X6.).| r R.@XeXaX8X&XR.@X$XwXqX|.$X$X*XwX4XXX XU.T.eX1X-XY.J.G.aXiX6X!.c.c.c.w.1.2.*.K @X@X",
"@X#X@X$.(.G t @XR.$Xi.G.G.W.$XW.i.h.f.u.,X$Xi.t.s.u.@XR.@Xs.k.x.T.R.U.y.c.U.K.S.c.0.1.1.1.7 @X@X",
"@XE.@X:.0 p r @X$X>XK.m.p.D.$X@Xx.d.r.l @X$Xh.p.0.q.L.L.[.B.l.m.c.P.L.i.K.e.D.H.L.0.`.+.7 i @X@X",
"@X#X$X,. .F c @X@X@Xt.=X!.h.T.+XY.fXtXv +XT.U.sXiXv U.[.U.7XdX/.G.K.K.l.}.b.t.c.c.r.*.:.` S @X@X",
"@XE.@X).X.G T.@X@X+X3XyXrX&X%X0XW. X,XW.0X@X,XJ.Y.@XU.T.K.P.T.R..XK.G.yXtX7XA.c.j.r.(.:.+.q @X@X",
"@X@X.X1.e w @X+X@Xv s K.R.$X$Xd k l.q.W.,Xs s h.j R.T.K.h.m.v T.U..Xk f L.U.H.S.j.a.z D 3 0 @X@X",
"@XR.@X:.*.e @X@X$XD.b.B.q.W.E. Xr.B.k T.@X[.e.s.n U.P.L.l.h.h.}.K.v.x.c.].!.D.H.D.a.e.S $.0 @X@X",
"@XE.&XH r 6 @X@XR.oXgX5X@XS q 2 hXpXA.&X$X&XhXH S @ OXL.fXiXuXU.].H S * N.K.c.c.u.e.g.G D 3 @XT.",
"@X+X) 2.`.4 #XT.@XoX1X&X2X`.7.#.$XoXs 1XW.$X1X`.2.^ @X@XT., s P.E.2.<.] <X|.S.n.c.h.l ,.<.$.OXR.",
"@X X,._.1.+.@X@X$XW.!.V.Q `.,.$., p.l.r.#X@XE `.1.%.Z.P.P.m.b.b.x ,._.6.+ w.{.H.S.c.k._.1.1.% U.",
"@X+X+.L t r @XR.$XT.0.h.K K H r .XrX7Xd R.$Xu K K 6 g. XU.}.tXl.m R i t + m.y.A.A.c.B Q G i $ >X",
"@X&X$.:.X.G @XR.R.$X4XsXK :./ R >XeXeXL.#X$X9 :./ Q j.U.@XqX4X-X( :.` Q   6Xc.c.n.n.B :.$.Q O E.",
"@X%X` :.X.F @XR.@XK.H.@XP :./ R A.p.H.,X$Xc.r -./ ! A.U.k s.D.@X( :.` G   T.H.v.c.n.B :.$.K O @X",
"@X&X+.;.X.G @XW.$Xm.!.0.G :./ R v d.n U.T.h.u %.` ! g.D.l.r.D.oXN -.+.Q + {.H.K.K.n.B *.+.! O @X",
"@X&X$.:.+.F @X@X@X0.~.f.G :.X.K gX8XB R.T. Xa :.+.Q g.L.7XdX/.P.M :.+.R + m.u.c.c.c.B :.+.Q O T.",
"@X&X] :. .G OX.X&XtXaXrXJ :.o.K XX>X,X<X@X,X> *. .! Q..X.XOXR.>XT -.+.R = D.c.j.y.j.m %.$.Q O @X",
"@X@X+.:.+.J (.2.9.2.<.<.D :.X.R o.2.9.9X9.9X5 *.+.! } `.9X9.<.2.Y %.#.W @ &.9X2.2.9.#.*.$.P O T.",
"@X&X] -.+.D S -.*.G Q i R :.X.R t -.-.Q Q S 0 -./ Q w *.:./ ! S 0 :.' R O =.-.%.R G p %.#.Q O T.",
"@X&X$.:. .D G -.*.G P S K :.X.J i -.%.Q Q S 0 :.X.! w :.&./ Q S 0 ;.#.! O =.-.%.R F H *.$.R O T.",
"@X%X+.:.+.J G :.:.! ! H G :.o.K 7 -.-.| | H 0 %.X.! 2 $.&._ ! F 9 =.+.R @ ` %._ R R r *.#.Q O T.",
"@X&X` :.X.G XX|.|.OX.X|.R :.` K ^.U.|.OX.X|.q -.X.Q h XX~.~.L.~.c -.+.R + ~.k.g.g.f.x *.$.Q O @X",
"@X&X` :.` J @X@X@X@X@X@XK :.` K U.@X@X@X@X@Xq -.X.! g.{.L.P.P.L.N $.#.R . D.h.c.h.n.B :.+.R O T.",
"@X&X$.:. .G @X@X@X@X@X@XK :.+.K U.@X@X@X@X@Xu ;.+.! g.P.P.{.P.P.N :.+.Q X K.n.c.c.n.B %.%.P O @X",
"@X&X$.:.` G @X@X@X@X@X@XK ;./ R U.@X@X@X@X@Xp :./ Q g.P.P.P.L.P.N :.X.R X K.c.c.n.c.l 1.$.Q O T.",
"@X@X+.-.` J @X@X@X@X@X@XK ;.X.W U.@X@X@X@X@X0 :.X.! Z.&X@X@X@X+XN -.$.! . #X@X@X@X@XI.:.#.Q O T.",
"@XT.+.;.@.H T.@X@X@X@X@XK 4.@.J U.@X@X@X@X@Xu ;.X.[ C.@X@X@X@X@X( =.X.K + T.@X@X@X@X;X:.o.P O +X",
"@XW._ ;.~ E &X@X@X@X@X@X8.-./ G  X@X@X@X@X@XZ ;.X.W A.@X@X@X@X@XZ.%.#.P = R.@X@X@X+X.X;.$. .< *X",
"@X+XE.*X#X$X@X@X@X@X@X@X%X&X@X@X$X@X@X@X@X@X%X&X@X@XR.T.@X@X@X@X+X@X@X@XT.+X@X@X@X@XT.@X@X<XR.@X",
"@X@X@X@X@X@X@X@X@X&X@X@X@X@X@X@X@X@X@X@X@X@X@X@X@X@X@X@X@X@X@X@X@X@X@X@X@X@X@X@X@X@X@X@X@X@X@X@X"
};
